<svg width="24" height="24" viewBox="0 0 24 24" fill="none" xmlns="http://www.w3.org/2000/svg">
<mask id="mask0_2004_3356" style="mask-type:alpha" maskUnits="userSpaceOnUse" x="0" y="0" width="24" height="24">
<rect width="24" height="24" fill="#D9D9D9"/>
</mask>
<g mask="url(#mask0_2004_3356)">
<path d="M14.275 17.25C14.4583 17.0833 14.5583 16.875 14.575 16.625C14.5917 16.375 14.5083 16.1583 14.325 15.975L11.55 13.05L11.575 12.975H11.825C12.725 12.975 13.4708 12.7 14.0625 12.15C14.6542 11.6 15.0167 10.9583 15.15 10.225H15.575C15.7417 10.225 15.8792 10.1667 15.9875 10.05C16.0958 9.93333 16.15 9.79167 16.15 9.625C16.15 9.45833 16.0958 9.32083 15.9875 9.2125C15.8792 9.10417 15.7417 9.05 15.575 9.05H15.125C15.075 8.8 14.9875 8.5625 14.8625 8.3375C14.7375 8.1125 14.5833 7.89167 14.4 7.675H15.575C15.7417 7.675 15.8792 7.61667 15.9875 7.5C16.0958 7.38333 16.15 7.24167 16.15 7.075C16.15 6.90833 16.0958 6.77083 15.9875 6.6625C15.8792 6.55417 15.7417 6.5 15.575 6.5H8.575C8.375 6.5 8.20417 6.57083 8.0625 6.7125C7.92083 6.85417 7.85 7.025 7.85 7.225C7.85 7.425 7.92083 7.59167 8.0625 7.725C8.20417 7.85833 8.375 7.925 8.575 7.925H11.75C12.1833 7.925 12.5375 8.03333 12.8125 8.25C13.0875 8.46667 13.275 8.73333 13.375 9.05H8.425C8.25833 9.05 8.12083 9.10833 8.0125 9.225C7.90417 9.34167 7.85 9.48333 7.85 9.65C7.85 9.81667 7.90417 9.95417 8.0125 10.0625C8.12083 10.1708 8.25833 10.225 8.425 10.225H13.4C13.3 10.5583 13.1083 10.8458 12.825 11.0875C12.5417 11.3292 12.1583 11.45 11.675 11.45H9.975C9.75833 11.45 9.57083 11.5 9.4125 11.6C9.25417 11.7 9.13333 11.8417 9.05 12.025C8.96667 12.2083 8.94167 12.3958 8.975 12.5875C9.00833 12.7792 9.1 12.9583 9.25 13.125L13 17.225C13.1667 17.4083 13.375 17.5 13.625 17.5C13.875 17.5 14.0917 17.4167 14.275 17.25ZM12 22C10.6167 22 9.31667 21.7375 8.1 21.2125C6.88333 20.6875 5.825 19.975 4.925 19.075C4.025 18.175 3.3125 17.1167 2.7875 15.9C2.2625 14.6833 2 13.3833 2 12C2 10.6167 2.2625 9.31667 2.7875 8.1C3.3125 6.88333 4.025 5.825 4.925 4.925C5.825 4.025 6.88333 3.3125 8.1 2.7875C9.31667 2.2625 10.6167 2 12 2C13.3833 2 14.6833 2.2625 15.9 2.7875C17.1167 3.3125 18.175 4.025 19.075 4.925C19.975 5.825 20.6875 6.88333 21.2125 8.1C21.7375 9.31667 22 10.6167 22 12C22 13.3833 21.7375 14.6833 21.2125 15.9C20.6875 17.1167 19.975 18.175 19.075 19.075C18.175 19.975 17.1167 20.6875 15.9 21.2125C14.6833 21.7375 13.3833 22 12 22ZM12 20C14.2333 20 16.125 19.225 17.675 17.675C19.225 16.125 20 14.2333 20 12C20 9.76667 19.225 7.875 17.675 6.325C16.125 4.775 14.2333 4 12 4C9.76667 4 7.875 4.775 6.325 6.325C4.775 7.875 4 9.76667 4 12C4 14.2333 4.775 16.125 6.325 17.675C7.875 19.225 9.76667 20 12 20Z" fill="white"/>
</g>
</svg>
