<svg width="16" height="16" viewBox="0 0 16 16" fill="none" xmlns="http://www.w3.org/2000/svg">
<mask id="mask0_2004_3201" style="mask-type:alpha" maskUnits="userSpaceOnUse" x="0" y="0" width="16" height="16">
<rect width="16" height="16" fill="#D9D9D9"/>
</mask>
<g mask="url(#mask0_2004_3201)">
<path d="M0.666504 13.3333V11.4666C0.666504 11.0888 0.763726 10.7416 0.958171 10.425C1.15262 10.1083 1.41095 9.86663 1.73317 9.69996C2.42206 9.35552 3.12206 9.09718 3.83317 8.92496C4.54428 8.75274 5.2665 8.66663 5.99984 8.66663C6.73317 8.66663 7.45539 8.75274 8.1665 8.92496C8.87761 9.09718 9.57762 9.35552 10.2665 9.69996C10.5887 9.86663 10.8471 10.1083 11.0415 10.425C11.2359 10.7416 11.3332 11.0888 11.3332 11.4666V13.3333H0.666504ZM12.6665 13.3333V11.3333C12.6665 10.8444 12.5304 10.375 12.2582 9.92496C11.9859 9.47496 11.5998 9.08885 11.0998 8.76663C11.6665 8.83329 12.1998 8.94718 12.6998 9.10829C13.1998 9.2694 13.6665 9.46663 14.0998 9.69996C14.4998 9.92218 14.8054 10.1694 15.0165 10.4416C15.2276 10.7138 15.3332 11.0111 15.3332 11.3333V13.3333H12.6665ZM5.99984 7.99996C5.2665 7.99996 4.63873 7.73885 4.1165 7.21663C3.59428 6.6944 3.33317 6.06663 3.33317 5.33329C3.33317 4.59996 3.59428 3.97218 4.1165 3.44996C4.63873 2.92774 5.2665 2.66663 5.99984 2.66663C6.73317 2.66663 7.36095 2.92774 7.88317 3.44996C8.40539 3.97218 8.6665 4.59996 8.6665 5.33329C8.6665 6.06663 8.40539 6.6944 7.88317 7.21663C7.36095 7.73885 6.73317 7.99996 5.99984 7.99996ZM12.6665 5.33329C12.6665 6.06663 12.4054 6.6944 11.8832 7.21663C11.3609 7.73885 10.7332 7.99996 9.99984 7.99996C9.87761 7.99996 9.72206 7.98607 9.53317 7.95829C9.34428 7.93051 9.18873 7.89996 9.0665 7.86663C9.3665 7.51107 9.59706 7.11663 9.75817 6.68329C9.91928 6.24996 9.99984 5.79996 9.99984 5.33329C9.99984 4.86663 9.91928 4.41663 9.75817 3.98329C9.59706 3.54996 9.3665 3.15551 9.0665 2.79996C9.22206 2.7444 9.37761 2.70829 9.53317 2.69163C9.68873 2.67496 9.84428 2.66663 9.99984 2.66663C10.7332 2.66663 11.3609 2.92774 11.8832 3.44996C12.4054 3.97218 12.6665 4.59996 12.6665 5.33329ZM1.99984 12H9.99984V11.4666C9.99984 11.3444 9.96928 11.2333 9.90817 11.1333C9.84706 11.0333 9.7665 10.9555 9.6665 10.9C9.0665 10.6 8.46095 10.375 7.84984 10.225C7.23873 10.075 6.62206 9.99996 5.99984 9.99996C5.37761 9.99996 4.76095 10.075 4.14984 10.225C3.53873 10.375 2.93317 10.6 2.33317 10.9C2.23317 10.9555 2.15262 11.0333 2.0915 11.1333C2.03039 11.2333 1.99984 11.3444 1.99984 11.4666V12ZM5.99984 6.66663C6.3665 6.66663 6.68039 6.53607 6.9415 6.27496C7.20262 6.01385 7.33317 5.69996 7.33317 5.33329C7.33317 4.96663 7.20262 4.65274 6.9415 4.39163C6.68039 4.13051 6.3665 3.99996 5.99984 3.99996C5.63317 3.99996 5.31928 4.13051 5.05817 4.39163C4.79706 4.65274 4.6665 4.96663 4.6665 5.33329C4.6665 5.69996 4.79706 6.01385 5.05817 6.27496C5.31928 6.53607 5.63317 6.66663 5.99984 6.66663Z" fill="#314E7D"/>
</g>
</svg>
